<?xml version="1.0" encoding="utf-8"?><svg viewBox="0 0 147 32" xmlns="http://www.w3.org/2000/svg" xmlns:xlink="http://www.w3.org/1999/xlink"><style>:root>svg{display:none}:root>svg:target{display:block}</style><svg viewBox="0 0 14 14" id="cross" xmlns="http://www.w3.org/2000/svg"><path d="M8.283 7.011l5.451-5.451A.906.906 0 1012.452.277L7 5.73 1.55.277A.906.906 0 10.266 1.56L5.718 7.01.266 12.463a.906.906 0 101.283 1.282L7 8.294l5.452 5.451a.905.905 0 001.282 0 .906.906 0 000-1.282L8.283 7.01z"/></svg><svg fill="#fff" viewBox="0 0 24 24" id="login" xmlns="http://www.w3.org/2000/svg"><g clip-path="url(#bclip0)" fill="#fff"><path d="M24 12c0-6.632-5.367-12-12-12C5.368 0 0 5.367 0 12c0 6.573 5.322 12 12 12 6.65 0 12-5.396 12-12zM12 1.406c5.842 0 10.594 4.753 10.594 10.594 0 2.137-.636 4.19-1.814 5.93-4.733-5.09-12.818-5.1-17.56 0A10.545 10.545 0 011.407 12C1.406 6.159 6.16 1.406 12 1.406zM4.098 19.055c4.208-4.72 11.598-4.72 15.805 0-4.223 4.723-11.581 4.725-15.805 0z"/><path d="M12 12.703a4.224 4.224 0 004.219-4.219V7.078A4.224 4.224 0 0012 2.86a4.224 4.224 0 00-4.219 4.22v1.405a4.224 4.224 0 004.22 4.22zM9.188 7.078A2.816 2.816 0 0112 4.266a2.816 2.816 0 012.813 2.812v1.406A2.816 2.816 0 0112 11.297a2.816 2.816 0 01-2.812-2.813V7.078z"/></g><defs><clipPath id="bclip0"><path fill="#fff" d="M0 0h24v24H0z"/></clipPath></defs></svg><svg fill="none" viewBox="0 0 147 32" id="logo" xmlns="http://www.w3.org/2000/svg"><path fill-rule="evenodd" clip-rule="evenodd" d="M18.466 0C8.078 0 0 8.409 0 18.63c0 4.288 1.484 8.575 4.287 11.873L5.44 31.82l2.144-2.141-.824-1.156c-2.308-2.804-3.463-6.266-3.463-9.893 0-8.574 6.926-15.5 15.5-15.5 8.572 0 15.498 6.926 15.498 15.5 0 3.627-1.32 7.089-3.465 9.893l-.821 1.156 2.143 2.141 1.154-1.317c2.308-3.463 3.79-7.585 3.79-11.873C37.096 8.408 28.854 0 18.466 0zm6.76 10.387L14.839 18.63l3.627 3.627L26.71 11.87l-1.484-1.483z" fill="#fff"/><path fill-rule="evenodd" clip-rule="evenodd" d="M52.357 3.021V7.31h8.412v22.093h4.614V7.31h8.41V3.02H52.357zm26.218 0v26.382H98.36V25.28H83.192v-7.09h13.19v-4.12h-13.19V7.144h15.003V3.02h-19.62zm33.8 0c-5.278 0-9.07 3.134-9.07 7.586 0 4.946 3.133 6.594 8.74 7.913 4.946.99 5.936 2.143 5.936 3.957 0 1.98-1.814 3.3-4.617 3.3-3.298 0-5.935-1.32-8.409-3.464l-2.803 3.297c3.132 2.804 6.926 4.123 11.212 4.453 5.441 0 9.397-2.968 9.397-7.914 0-4.453-2.801-6.433-8.407-7.752-5.111-1.154-6.266-2.142-6.266-4.12 0-1.814 1.649-3.133 4.287-3.133 2.308 0 4.781.824 7.089 2.639l2.474-3.463c-2.638-2.143-5.771-3.299-9.563-3.299zm13.19 0V7.31h8.409v22.093h4.617V7.31H147V3.02h-21.435z" fill="#F25B24"/></svg></svg>